<svg width="14" height="14" viewBox="0 0 14 14" fill="none" xmlns="http://www.w3.org/2000/svg">
<g clip-path="url(#clip0_4_270)">
<path d="M6.13376 0.507499C5.97623 0.280017 5.70064 0.170642 5.43374 0.236249C2.36251 0.99312 0.21875 3.73625 0.21875 6.90813C0.21875 10.6969 3.30312 13.7813 7.09188 13.7813C10.2638 13.7813 13.0069 11.6375 13.7638 8.56624C13.8294 8.29937 13.72 8.02375 13.4925 7.86625C13.2694 7.71313 12.9675 7.71751 12.7444 7.87501C11.935 8.44813 10.9856 8.75439 9.99686 8.75439C7.37624 8.75439 5.24562 6.62376 5.24562 4.00312C5.24562 3.01439 5.55187 2.065 6.125 1.25564C6.28249 1.03251 6.28687 0.730628 6.13376 0.507499Z" fill="#010101"/>
</g>
<defs>
<clipPath id="clip0_4_270">
<rect width="14" height="14" fill="white"/>
</clipPath>
</defs>
</svg>
