<svg width="14" height="14" viewBox="0 0 14 14" fill="none" xmlns="http://www.w3.org/2000/svg">
<g clip-path="url(#clip0_16_137)">
<path d="M7 10.9375C9.17462 10.9375 10.9375 9.17462 10.9375 7C10.9375 4.82538 9.17462 3.0625 7 3.0625C4.82538 3.0625 3.0625 4.82538 3.0625 7C3.0625 9.17462 4.82538 10.9375 7 10.9375Z" fill="white"/>
<path d="M7.65625 1.81081V0.875C7.65625 0.700952 7.58711 0.534032 7.46404 0.410961C7.34097 0.28789 7.17405 0.21875 7 0.21875C6.82595 0.21875 6.65903 0.28789 6.53596 0.410961C6.41289 0.534032 6.34375 0.700952 6.34375 0.875V1.81081C6.34375 1.98486 6.41289 2.15178 6.53596 2.27485C6.65903 2.39792 6.82595 2.46706 7 2.46706C7.17405 2.46706 7.34097 2.39792 7.46404 2.27485C7.58711 2.15178 7.65625 1.98486 7.65625 1.81081ZM3.79487 3.79444C3.9179 3.67137 3.98702 3.50448 3.98702 3.33047C3.98702 3.15645 3.9179 2.98957 3.79487 2.8665L3.1325 2.205C3.07221 2.14129 2.99976 2.09031 2.91943 2.05508C2.8391 2.01985 2.75252 2.00108 2.66481 1.99988C2.57711 1.99868 2.49005 2.01508 2.40879 2.0481C2.32752 2.08112 2.25371 2.1301 2.1917 2.19214C2.12969 2.25418 2.08074 2.32802 2.04776 2.4093C2.01477 2.49058 1.99842 2.57764 1.99966 2.66535C2.0009 2.75306 2.01971 2.83962 2.05498 2.91994C2.09025 3.00025 2.14126 3.07268 2.205 3.13294L2.8665 3.79444C2.92739 3.85553 2.99973 3.90399 3.07938 3.93707C3.15904 3.97014 3.24444 3.98716 3.33069 3.98716C3.41694 3.98716 3.50234 3.97014 3.58199 3.93707C3.66165 3.90399 3.73399 3.85553 3.79487 3.79444ZM0.875 7.65625H1.81038C1.98442 7.65625 2.15134 7.58711 2.27441 7.46404C2.39748 7.34097 2.46663 7.17405 2.46663 7C2.46663 6.82595 2.39748 6.65903 2.27441 6.53596C2.15134 6.41289 1.98442 6.34375 1.81038 6.34375H0.875C0.700952 6.34375 0.534032 6.41289 0.410961 6.53596C0.28789 6.65903 0.21875 6.82595 0.21875 7C0.21875 7.17405 0.28789 7.34097 0.410961 7.46404C0.534032 7.58711 0.700952 7.65625 0.875 7.65625ZM2.205 11.795C2.26582 11.8561 2.33812 11.9046 2.41774 11.9377C2.49736 11.9708 2.58274 11.9879 2.66897 11.9879C2.7552 11.9879 2.84058 11.9708 2.9202 11.9377C2.99982 11.9046 3.07212 11.8561 3.13294 11.795L3.79444 11.1335C3.85891 11.0734 3.91063 11.001 3.9465 10.9205C3.98236 10.84 4.00165 10.7531 4.0032 10.665C4.00476 10.5768 3.98855 10.4893 3.95554 10.4076C3.92254 10.3259 3.87341 10.2517 3.8111 10.1893C3.74878 10.127 3.67455 10.0779 3.59284 10.0449C3.51112 10.0119 3.4236 9.99568 3.33548 9.99723C3.24737 9.99879 3.16047 10.0181 3.07997 10.0539C2.99947 10.0898 2.92702 10.1415 2.86694 10.206L2.205 10.8666C2.14402 10.9276 2.09564 10.9999 2.06263 11.0796C2.02963 11.1592 2.01264 11.2446 2.01264 11.3308C2.01264 11.417 2.02963 11.5024 2.06263 11.582C2.09564 11.6617 2.14402 11.7341 2.205 11.795ZM6.34375 12.1892V13.125C6.34375 13.299 6.41289 13.466 6.53596 13.589C6.65903 13.7121 6.82595 13.7812 7 13.7812C7.17405 13.7812 7.34097 13.7121 7.46404 13.589C7.58711 13.466 7.65625 13.299 7.65625 13.125V12.1892C7.65625 12.0151 7.58711 11.8482 7.46404 11.7251C7.34097 11.6021 7.17405 11.5329 7 11.5329C6.82595 11.5329 6.65903 11.6021 6.53596 11.7251C6.41289 11.8482 6.34375 12.0151 6.34375 12.1892ZM10.8671 11.795C10.9279 11.8561 11.0002 11.9046 11.0798 11.9377C11.1594 11.9708 11.2448 11.9879 11.331 11.9879C11.4173 11.9879 11.5026 11.9708 11.5823 11.9377C11.6619 11.9046 11.7342 11.8561 11.795 11.795C11.918 11.6719 11.9871 11.505 11.9871 11.331C11.9871 11.157 11.918 10.9901 11.795 10.8671L11.1335 10.2056C11.0732 10.1419 11.0008 10.0909 10.9204 10.0556C10.8401 10.0204 10.7535 10.0016 10.6658 10.0004C10.5781 9.99924 10.491 10.0156 10.4098 10.0487C10.3285 10.0817 10.2547 10.1307 10.1927 10.1927C10.1307 10.2547 10.0817 10.3286 10.0488 10.4099C10.0158 10.4911 9.99942 10.5782 10.0007 10.6659C10.0019 10.7536 10.0207 10.8402 10.056 10.9205C10.0912 11.0008 10.1423 11.0732 10.206 11.1335L10.8666 11.795H10.8671ZM13.125 6.34375H12.1892C12.0151 6.34375 11.8482 6.41289 11.7251 6.53596C11.6021 6.65903 11.5329 6.82595 11.5329 7C11.5329 7.17405 11.6021 7.34097 11.7251 7.46404C11.8482 7.58711 12.0151 7.65625 12.1892 7.65625H13.125C13.299 7.65625 13.466 7.58711 13.589 7.46404C13.7121 7.34097 13.7812 7.17405 13.7812 7C13.7812 6.82595 13.7121 6.65903 13.589 6.53596C13.466 6.41289 13.299 6.34375 13.125 6.34375ZM11.795 2.205C11.6719 2.08197 11.505 2.01286 11.331 2.01286C11.157 2.01286 10.9901 2.08197 10.8671 2.205L10.2056 2.8665C10.1419 2.92679 10.0909 2.99924 10.0556 3.07957C10.0204 3.1599 10.0016 3.24648 10.0004 3.33419C9.99924 3.42189 10.0156 3.50895 10.0487 3.59021C10.0817 3.67148 10.1307 3.74529 10.1927 3.8073C10.2547 3.86931 10.3286 3.91826 10.4099 3.95124C10.4911 3.98423 10.5782 4.00058 10.6659 3.99934C10.7536 3.9981 10.8402 3.97929 10.9205 3.94402C11.0008 3.90875 11.0732 3.85774 11.1335 3.794L11.795 3.13338C11.856 3.07243 11.9044 3.00007 11.9374 2.92042C11.9704 2.84077 11.9874 2.7554 11.9874 2.66919C11.9874 2.58297 11.9704 2.4976 11.9374 2.41795C11.9044 2.33831 11.856 2.26594 11.795 2.205Z" fill="white"/>
</g>
<defs>
<clipPath id="clip0_16_137">
<rect width="14" height="14" fill="white"/>
</clipPath>
</defs>
</svg>
